# xmcd
#
# Track frame offsets: 
#        150
#        22032
#        43587
#        58475
#        80947
#        101055
#        116687
#        139340
#        157147
#        181727
#        202645
#        220552
#        235095
#        251330
#        271202
#        284955
#
# Disc length: 4110 seconds
#
# Revision: 1
# Processed by: cddbd v1.5.2PL0 Copyright (c) Steve Scherf et al.
# Submitted via: ExactAudioCopy v0.99pb4
#
DISCID=f1100c10
DTITLE=Various Artist - Dove Awards 2000
DYEAR=2000
DGENRE=Christian Rock
TTITLE0=DC Talk/Consume Me
TTITLE1=Avalon/Can't Live a Day
TTITLE2=Steven Curtis Chapman/Be Still and Know
TTITLE3=Jaci Velasquez/God So Loved
TTITLE4=Third Day/I've Always Loved You
TTITLE5=Ginny Owens/Free
TTITLE6=4Him/The Only Thing I Need (feat. John Anderson)
TTITLE7=Fernando Ortega/Jesus, King of Angels
TTITLE8=Point of Grace/Forever On and On
TTITLE9=Kathy Troccoli/A Different Road
TTITLE10=Katinas/You Are God
TTITLE11=Big Tent Revival/Choose Life
TTITLE12=Cindy Morgan/Make Us One
TTITLE13=Chris Rice/The Power of a Moment
TTITLE14=SONICFLOOd/I Want to Know You
TTITLE15=John Elefante/Home with a View
EXTD=
EXTT0=
EXTT1=
EXTT2=
EXTT3=
EXTT4=
EXTT5=
EXTT6=
EXTT7=
EXTT8=
EXTT9=
EXTT10=
EXTT11=
EXTT12=
EXTT13=
EXTT14=
EXTT15=
PLAYORDER=
